<svg xmlns="http://www.w3.org/2000/svg" width="200" height="200" viewBox="0 0 200 200" role="img" aria-labelledby="mezzanine-title mezzanine-desc">
  <title id="mezzanine-title">Mezzanine</title>
  <desc id="mezzanine-desc">A hexagonal multi-level workflow hall with ledgers, outbox rails, Temporal loop, reducers, and projections.</desc>
  <defs>
    <clipPath id="mezzanine-hex">
      <path d="M100 4 L183 52 L183 148 L100 196 L17 148 L17 52 Z"/>
    </clipPath>
    <linearGradient id="mezzanine-bg" x1="24" y1="24" x2="176" y2="176" gradientUnits="userSpaceOnUse">
      <stop offset="0" stop-color="#20364b"/>
      <stop offset="0.58" stop-color="#102234"/>
      <stop offset="1" stop-color="#091018"/>
    </linearGradient>
    <linearGradient id="mezzanine-floor" x1="46" y1="83" x2="156" y2="134" gradientUnits="userSpaceOnUse">
      <stop offset="0" stop-color="#f5d58b"/>
      <stop offset="1" stop-color="#6fd4ff"/>
    </linearGradient>
    <filter id="mezzanine-shadow" x="-20%" y="-20%" width="140%" height="140%">
      <feDropShadow dx="0" dy="8" stdDeviation="5" flood-color="#000000" flood-opacity="0.32"/>
    </filter>
  </defs>
  <g clip-path="url(#mezzanine-hex)">
    <path d="M100 4 L183 52 L183 148 L100 196 L17 148 L17 52 Z" fill="url(#mezzanine-bg)"/>
    <g opacity="0.35" stroke="#9edbff" stroke-width="1.7" fill="none">
      <path d="M33 58 H167"/>
      <path d="M33 98 H167"/>
      <path d="M33 138 H167"/>
      <path d="M58 42 V158"/>
      <path d="M100 26 V174"/>
      <path d="M142 42 V158"/>
    </g>
    <g filter="url(#mezzanine-shadow)">
      <path d="M46 82 L100 52 L154 82 L154 103 L100 134 L46 103 Z" fill="#0b1725" stroke="#d8f8ff" stroke-width="2.2"/>
      <path d="M46 103 L100 134 L154 103 L154 124 L100 156 L46 124 Z" fill="url(#mezzanine-floor)" opacity="0.92" stroke="#d8f8ff" stroke-width="2"/>
      <path d="M62 91 L100 70 L138 91 L100 114 Z" fill="#15334a" stroke="#f5d58b" stroke-width="2"/>
      <path d="M66 113 L100 133 L134 113" fill="none" stroke="#102234" stroke-width="2.5"/>
    </g>
    <g fill="#102234" stroke="#d8f8ff" stroke-width="2">
      <rect x="63" y="80" width="20" height="16" rx="3"/>
      <rect x="90" y="70" width="20" height="16" rx="3"/>
      <rect x="117" y="80" width="20" height="16" rx="3"/>
      <rect x="68" y="116" width="22" height="18" rx="3"/>
      <rect x="110" y="116" width="22" height="18" rx="3"/>
    </g>
    <g fill="none" stroke-linecap="round" stroke-linejoin="round">
      <path d="M75 88 H79 M96 78 H104 M122 88 H132" stroke="#6fd4ff" stroke-width="2"/>
      <path d="M74 125 H84 M116 125 H126" stroke="#102234" stroke-width="2"/>
      <path d="M41 67 C51 46 72 34 99 34 C128 34 150 47 160 69" stroke="#f5d58b" stroke-width="4"/>
      <path d="M154 64 L161 69 L163 60" stroke="#f5d58b" stroke-width="4"/>
      <path d="M39 145 C53 160 74 168 100 168 C126 168 147 160 161 145" stroke="#6fd4ff" stroke-width="4"/>
      <path d="M44 146 L37 139 L36 150" stroke="#6fd4ff" stroke-width="4"/>
    </g>
    <g stroke="#ffffff" stroke-width="2" opacity="0.55">
      <path d="M83 134 V151"/>
      <path d="M117 134 V151"/>
      <path d="M100 52 V32"/>
    </g>
    <path d="M100 4 L183 52 L183 148 L100 196 L17 148 L17 52 Z" fill="none" stroke="#b7ecff" stroke-width="4"/>
  </g>
</svg>
